HIERARCHY
ROOT Hips
{
  OFFSET 13.6774 106.653 -34.4427
  CHANNELS 6 Xposition Yposition Zposition Zrotation Xrotation Yrotation
  JOINT ToSpine
  {
    OFFSET -2.69724 7.43032 -0.144315
    CHANNELS 3 Zrotation Xrotation Yrotation
    JOINT Spine
    {
      OFFSET -0.0310711 10.7595 1.96963
      CHANNELS 3 Zrotation Xrotation Yrotation
      JOINT Spine1
      {
        OFFSET 19.9056 3.91189 0.764692
        CHANNELS 3 Zrotation Xrotation Yrotation
        JOINT Neck
        {
          OFFSET 25.9749 7.03908 -0.130764
          CHANNELS 3 Zrotation Xrotation Yrotation
          JOINT Head
          {
            OFFSET 9.52751 0.295786 -0.907742
            CHANNELS 3 Zrotation Xrotation Yrotation
            End Site
            {
              OFFSET 16.4037 0.713936 2.7358
            }
          }
        }
        JOINT LeftShoulder
        {
          OFFSET 17.7449 4.33886 11.7777
          CHANNELS 3 Zrotation Xrotation Yrotation
          JOINT LeftArm
          {
            OFFSET 0.911315 1.27913 9.80584
            CHANNELS 3 Zrotation Xrotation Yrotation
            JOINT LeftForeArm
            {
              OFFSET 28.6126 1.18197 -3.53199
              CHANNELS 3 Zrotation Xrotation Yrotation
              JOINT LeftHand
              {
                OFFSET 27.5088 0.0218783 0.327423
                CHANNELS 3 Zrotation Xrotation Yrotation
                End Site
                {
                  OFFSET 18.6038 -0.000155887 0.382096
                }
              }
            }
          }
        }
        JOINT RightShoulder
        {
          OFFSET 17.1009 2.89543 -12.2328
          CHANNELS 3 Zrotation Xrotation Yrotation
          JOINT RightArm
          {
            OFFSET 1.4228 0.178766 -10.211
            CHANNELS 3 Zrotation Xrotation Yrotation
            JOINT RightForeArm
            {
              OFFSET 28.733 1.87905 2.64907
              CHANNELS 3 Zrotation Xrotation Yrotation
              JOINT RightHand
              {
                OFFSET 27.4588 0.290562 -0.101845
                CHANNELS 3 Zrotation Xrotation Yrotation
                End Site
                {
                  OFFSET 17.8396 -0.255518 -0.000602873
                }
              }
            }
          }
        }
      }
    }
  }
  JOINT LeftUpLeg
  {
    OFFSET -5.61296 -2.22332 -10.2353
    CHANNELS 3 Zrotation Xrotation Yrotation
    JOINT LeftLeg
    {
      OFFSET 2.56703 -44.7417 -7.93097
      CHANNELS 3 Zrotation Xrotation Yrotation
      JOINT LeftFoot
      {
        OFFSET 3.16933 -46.5642 -3.96578
        CHANNELS 3 Zrotation Xrotation Yrotation
        JOINT LeftToeBase
        {
          OFFSET 0.346054 -6.02161 12.8035
          CHANNELS 3 Zrotation Xrotation Yrotation
          End Site
          {
            OFFSET 0.134235 -1.35082 5.13018
          }
        }
      }
    }
  }
  JOINT RightUpLeg
  {
    OFFSET -5.7928 -1.72406 10.6446
    CHANNELS 3 Zrotation Xrotation Yrotation
    JOINT RightLeg
    {
      OFFSET -2.57161 -44.7178 -7.85259
      CHANNELS 3 Zrotation Xrotation Yrotation
      JOINT RightFoot
      {
        OFFSET -3.10148 -46.5936 -4.03391
        CHANNELS 3 Zrotation Xrotation Yrotation
        JOINT RightToeBase
        {
          OFFSET -0.0828122 -6.13587 12.8035
          CHANNELS 3 Zrotation Xrotation Yrotation
          End Site
          {
            OFFSET -0.131328 -1.35082 5.13018
          }
        }
      }
    }
  }
}
MOTION
Frames: 7
Frame Time: 0.03333333333333333
0.0000 93.1000 0.0000 60.1056 -50.8753 -26.0670 -70.9422 -0.0035 87.8890 77.5156 71.1715 4.3790 2.9189 21.0468 2.1101 -124.9364 29.9781 158.1709 -165.9277 73.9333 -156.4671 -0.6374 -14.4263 -21.9486 -58.6615 33.0369 -136.9992 11.0102 -0.2502 -91.7204 -1.1601 0.1883 4.8119 -1.3587 7.1681 27.5026 -126.9277 -33.6035 97.3893 16.9039 -9.8786 61.6539 0.3714 0.4170 1.3455 -50.6874 4.8750 103.1152 -2.3337 33.4283 -3.0117 1.7671 -12.8215 -2.3937 1.9068 -7.1556 7.6084 -43.5252 -9.1082 80.4782 1.5230 16.7705 11.3882 -0.6935 9.3973 -0.3366 -0.3332 -4.1891 0.8709 
0.0000 93.1000 0.0000 52.7868 -56.1073 -32.1526 -70.9413 -0.0194 87.8638 72.7618 70.7529 8.8568 4.2890 19.9806 2.9159 -124.1642 27.6790 159.6917 -158.2541 71.3631 -160.2680 -0.5343 -14.5252 -20.9012 -63.5948 34.7851 -134.0842 10.3706 -0.7920 -90.0007 -1.0792 0.1386 4.7290 -1.1298 6.9220 24.5554 -119.8646 -41.7232 104.5834 18.5267 -9.9665 64.0270 0.7428 0.3965 1.7451 -50.7860 5.8627 106.6984 -2.4814 32.1969 -0.2273 2.0929 -13.0004 -2.4096 0.6127 -5.5503 5.4046 -43.4952 -7.5470 80.8552 2.2245 12.6542 20.3188 0.9229 10.7739 -0.6412 1.2349 -11.6545 -13.0538 
0.0000 93.1000 0.0000 43.7653 -61.0483 -41.6149 -70.9219 0.0422 87.8340 71.9971 70.0726 9.0718 5.1751 18.9465 3.3729 -121.5941 25.0897 161.2918 -151.5092 67.8081 -165.6172 -0.7791 -15.1417 -19.1563 -69.7177 34.6826 -130.0514 8.4894 -0.3695 -88.0566 -0.8803 0.4653 4.3511 -1.0958 6.0538 23.5518 -108.0381 -47.3399 115.9545 18.7368 -7.7935 68.1357 0.4799 0.8332 1.8840 -50.8979 7.2408 109.9519 -1.3873 32.8703 2.4471 2.1639 -12.9884 -2.7818 1.5514 -8.2734 4.7048 -40.8366 -5.0198 81.4392 0.8296 18.6341 13.9033 -2.0712 5.1753 0.4307 2.3670 -16.0214 -14.5328 
0.0000 93.1000 0.0000 34.0132 -66.2577 -52.2993 -70.9081 0.0082 87.8047 73.2599 69.1480 7.3624 5.3094 18.3595 3.1625 -119.9426 22.8861 164.0380 -147.0276 64.9178 -168.6768 -0.5818 -15.4935 -18.2826 -76.4357 33.9063 -124.8778 6.2786 -0.1660 -84.8538 -1.0742 0.3701 4.5062 -1.0903 5.8393 21.3465 -95.2003 -50.9011 128.3409 22.0600 -7.0100 72.6049 0.6016 0.6883 2.4405 -51.7971 7.7752 112.7857 -1.7883 32.3424 7.0547 0.9081 -13.0281 -2.4920 2.4161 -7.7945 7.3493 -38.8643 -4.5327 80.3505 0.9145 28.8760 2.5800 -6.7340 -0.7347 1.2843 2.2121 -16.0539 -15.9836 
0.0000 93.1000 0.0000 19.9752 -69.8713 -69.5465 -70.9021 -0.0047 87.7917 70.7549 68.2613 10.0167 6.2710 17.7703 3.0109 -119.2204 22.0694 167.4752 -143.2523 62.6381 -168.9244 -0.4866 -15.6662 -17.4804 -82.5071 31.7220 -117.9086 7.5027 -0.0713 -82.8545 -1.2300 0.3214 4.5084 -1.0892 5.5899 19.9775 -80.8630 -51.0556 140.4713 23.9152 -5.6678 77.1820 0.8997 0.6213 2.9049 -53.6460 7.0033 112.8503 -1.5580 30.3311 11.6447 -0.4112 -11.5535 -2.0205 3.5250 -9.0751 8.1813 -38.7105 -5.0275 77.5281 1.0171 38.8817 -4.3121 -10.6736 -2.5306 1.6072 1.8288 -14.8851 -12.5857 
0.0000 93.1000 0.0000 3.0613 -72.2003 -87.2599 -70.8945 -0.0381 87.7817 68.0424 67.0374 12.1079 7.4977 17.9674 2.7216 -119.1160 21.7707 172.7379 -141.1331 60.8073 -168.6920 -0.2860 -15.7620 -17.6046 -88.6360 30.2319 -111.9833 9.6397 0.9287 -81.5872 -1.2716 0.1024 4.5571 -1.0994 4.9664 18.5007 -67.9994 -49.6039 150.3239 23.7462 -4.1122 81.1695 1.3688 0.4100 3.2414 -56.7044 5.0035 113.2786 -2.7197 29.6890 17.7654 -1.2128 -10.0415 -1.5243 3.9529 -11.2779 9.2527 -39.7321 -6.5176 75.3663 1.2264 46.8194 -8.4474 -13.8746 -3.3975 1.9087 1.9717 -13.3021 -10.8974 
0.0000 93.1000 0.0000 -13.9945 -71.9473 -104.8182 -70.8737 -0.1618 87.7766 64.7427 65.6068 16.6737 9.4646 17.4291 2.1513 -120.7492 21.1773 176.8506 -141.7634 58.6648 -169.2787 0.3548 -15.1262 -17.1088 -93.8569 28.6946 -105.7786 11.0917 1.2913 -80.9001 -1.3877 -0.4732 5.0289 -1.1371 4.3383 19.0394 -58.8274 -45.3649 156.6636 22.2449 -2.2668 86.5909 1.9185 -0.2711 4.0789 -58.1796 4.7577 115.2238 -2.1408 30.7687 17.0634 -2.5787 -9.5548 -0.6539 4.0633 -12.2966 11.3972 -41.8826 -6.8704 75.4764 1.0681 49.0630 -10.2455 -14.9633 -2.3155 1.5725 1.1902 -15.6192 -5.8722 
